{"title":"The Paperboy(2012)MPEG-4[DaScubaDude]","uid":15308714,"size":1213774633,"categoryP":"video","categoryS":"movies","magnet":"?xt=urn:btih:6ac1de5dda13fbc0548e5c3f618beed1ec6f6a01&amp;dn=The+Paperboy%282012%29MPEG-4%5BDaScubaDude%5D&amp;tr=udp%3A%2F%2Ftracker.leechers-paradise.org%3A6969&amp;tr=udp%3A%2F%2Fzer0day.ch%3A1337&amp;tr=udp%3A%2F%2Fopen.demonii.com%3A1337&amp;tr=udp%3A%2F%2Ftracker.coppersurfer.tk%3A6969&amp;tr=udp%3A%2F%2Fexodus.desync.com%3A6969","seeders":5,"leechers":2,"uploader":"dascuba","files":1,"time":1468550104,"description":"The Paperboy (2012)\r\nR | 1h 47min | Drama, Thriller | 17 October 2012 (Belgium)\r\nA reporter returns to his Florida home-town to investigate a case involving a death row inmate.\r\nDirector: Lee Daniels\r\nWriters: Peter Dexter (screenplay), Lee Daniels (screenplay) |\r\nStars: Matthew McConaughey, Nicole Kidman, John Cusack |\r\n\r\n General\r\nComplete name                            : The PaperboyTHE_PAPERBOY_Title1.mp4\r\nFormat                                   : MPEG-4\r\nFormat profile                           : Base Media\r\nCodec ID                                 : isom (isom/iso2/avc1/mp41)\r\nFile size                                : 1.13 GiB\r\nDuration                                 : 1h 46mn\r\nOverall bit rate mode                    : Variable\r\nOverall bit rate                         : 1 518 Kbps\r\nMovie name                               : THE_PAPERBOY\r\nGenre                                    : Drama\r\nWriting application                      : Lavf54.6.100\r\n\r\nVideo\r\nID                                       : 1\r\nFormat                                   : AVC\r\nFormat/Info                              : Advanced Video Codec\r\nFormat profile                           :   \r\nFormat settings, CABAC                   : No\r\nFormat settings, ReFrames                : 6 frames\r\nCodec ID                                 : avc1\r\nCodec ID/Info                            : Advanced Video Coding\r\nDuration                                 : 1h 46mn\r\nBit rate                                 : 1 194 Kbps\r\nWidth                                    : 720 pixels\r\nHeight                                   : 404 pixels\r\nDisplay aspect ratio                     : 16:9\r\nFrame rate mode                          : Constant\r\nFrame rate                               : 29.970 (30000/1001) fps\r\nColor space                              : YUV\r\nChroma subsampling                       : 4:2:0\r\nBit depth                                : 8 bits\r\nScan type                                : Progressive\r\nBits/(Pixel*Frame)                       : 0.137\r\nStream size                              : 911 MiB (79%)\r\n\r\nAudio\r\nID                                       : 2\r\nFormat                                   : AAC\r\nFormat/Info                              : Advanced Audio Codec\r\nFormat profile                           : LC\r\nCodec ID                                 : 40\r\nDuration                                 : 1h 46mn\r\nBit rate mode                            : Variable\r\nBit rate                                 : 316 Kbps\r\nMaximum bit rate                         : 396 Kbps\r\nChannel(s)                               : 2 channels\r\nChannel(s)_Original                      : 6 channels\r\nChannel positions                        : Front: L C R, Side: L R, LFE\r\nSampling rate                            : 44.1 KHz\r\nFrame rate                               : 43.066 fps (1024 spf)\r\nCompression mode                         : Lossy\r\nStream size                              : 241 MiB (21%)\r\nDefault                                  : Yes\r\nAlternate group                          : 1","torrent":{"xt":"urn:btih:6ac1de5dda13fbc0548e5c3f618beed1ec6f6a01","amp;dn":"The+Paperboy%282012%29MPEG-4%5BDaScubaDude%5D","amp;tr":["udp%3A%2F%2Ftracker.leechers-paradise.org%3A6969","udp%3A%2F%2Fzer0day.ch%3A1337","udp%3A%2F%2Fopen.demonii.com%3A1337","udp%3A%2F%2Ftracker.coppersurfer.tk%3A6969","udp%3A%2F%2Fexodus.desync.com%3A6969"],"infoHash":"6ac1de5dda13fbc0548e5c3f618beed1ec6f6a01","infoHashBuffer":{"type":"Buffer","data":[106,193,222,93,218,19,251,192,84,142,92,63,97,139,238,209,236,111,106,1]},"announce":[],"urlList":[]}}